<svg id="Layer_1" data-name="Layer 1" xmlns="http://www.w3.org/2000/svg" viewBox="0 0 451.91 319.67"><defs><style>.cls-1{fill:none;stroke:#2f1241;stroke-linecap:round;stroke-linejoin:round;stroke-width:4px;}.cls-2{fill:#2f1241;}</style></defs><title>TWWD</title><polyline class="cls-1" points="19.67 3 19.67 147.67 55.5 147.67 55.5 317.67"/><path class="cls-1" d="M657.21,597.83" transform="translate(-414.05 -352.5)"/><circle class="cls-1" cx="276.33" cy="245.33" r="9"/><path class="cls-1" d="M743.71,671.5" transform="translate(-414.05 -352.5)"/><polygon class="cls-1" points="239.67 317 239.67 173 311 245 239.67 317"/><polyline class="cls-1" points="294.63 191.71 276.33 210 241.67 245 276.33 280 293.23 296.9"/><polyline class="cls-1" points="175.84 210 141.17 245 175.84 280"/><path class="cls-1" d="M653.71,671.5" transform="translate(-414.05 -352.5)"/><path class="cls-1" d="M665,671.5" transform="translate(-414.05 -352.5)"/><polyline class="cls-1" points="420.86 146.67 360.52 74.33 420.86 2"/><path class="cls-1" d="M834.9,426.83" transform="translate(-414.05 -352.5)"/><polyline class="cls-1" points="390.69 110.5 420.86 74.33 390.69 38.17"/><polyline class="cls-1" points="331.69 85 340.58 74.33 331.69 63.67"/><polyline class="cls-1" points="129.58 234.34 120.69 245 129.58 255.66"/><line class="cls-1" x1="360.52" y1="74.33" x2="349.92" y2="74.33"/><line class="cls-1" x1="142.03" y1="245" x2="131.42" y2="245"/><circle class="cls-1" cx="390.69" cy="74.33" r="9"/><circle class="cls-2" cx="390.69" cy="74.33" r="1.98"/><circle class="cls-2" cx="276.33" cy="245.33" r="1.98"/><line class="cls-1" x1="449.91" y1="74.14" x2="434.75" y2="74.14"/><line class="cls-1" x1="433.52" y1="34.57" x2="422.8" y2="45.29"/><line class="cls-1" x1="433.52" y1="113.7" x2="422.8" y2="102.98"/><line class="cls-1" x1="445.7" y1="95.42" x2="431.68" y2="89.66"/><line class="cls-1" x1="445.6" y1="52.6" x2="431.6" y2="58.43"/><rect class="cls-1" x="130.67" y="3" width="71.33" height="144"/><path class="cls-1" d="M544.71,501.5" transform="translate(-414.05 -352.5)"/><path class="cls-1" d="M616,501.5" transform="translate(-414.05 -352.5)"/><rect class="cls-1" x="349" y="173" width="71.33" height="144"/><path class="cls-1" d="M765.71,671.5" transform="translate(-414.05 -352.5)"/><path class="cls-1" d="M837,671.5" transform="translate(-414.05 -352.5)"/><line class="cls-1" x1="349.19" y1="147" x2="349.19" y2="2"/><line class="cls-1" x1="267.67" y1="84.33" x2="311.33" y2="146.67"/><polyline class="cls-1" points="91.33 3 91.33 147.67 55.5 147.67"/><polyline class="cls-1" points="283.33 3 239.67 66 267.67 66 311.33 3 311.33 75 239.67 75 239.67 147"/><polyline class="cls-1" points="202.67 316.83 130.67 316.83 130.67 173 202.67 173"/><path class="cls-1" d="M545.56,597.83" transform="translate(-414.05 -352.5)"/><circle class="cls-1" cx="55.51" cy="92.92" r="9"/><circle class="cls-1" cx="55.51" cy="92.92" r="20.74"/><line class="cls-1" x1="375.19" y1="221.37" x2="375.19" y2="268.47"/><line class="cls-1" x1="227.17" y1="221.37" x2="227.17" y2="268.47"/><line class="cls-1" x1="217.17" y1="238" x2="217.17" y2="251.83"/><line class="cls-1" x1="393.19" y1="221.37" x2="393.19" y2="268.47"/><line class="cls-1" x1="55.5" y1="147.67" x2="55.5" y2="102.98"/><path class="cls-1" d="M761.24,588.42a9,9,0,1,0,0,18" transform="translate(-414.05 -352.5)"/><path class="cls-1" d="M836.19,588.42a9,9,0,1,1,0,18" transform="translate(-414.05 -352.5)"/><path class="cls-1" d="M752.24,597.5" transform="translate(-414.05 -352.5)"/><path class="cls-1" d="M725,597.5" transform="translate(-414.05 -352.5)"/><path class="cls-1" d="M505.38,597.5" transform="translate(-414.05 -352.5)"/><path class="cls-1" d="M534.74,597.5" transform="translate(-414.05 -352.5)"/><polyline class="cls-1" points="19.67 173 19.67 317.67 91.33 317.67 91.33 173"/><line class="cls-1" x1="2" y1="204.92" x2="19.33" y2="204.92"/><line class="cls-1" x1="2" y1="244.92" x2="19.33" y2="244.92"/><line class="cls-1" x1="2" y1="284.92" x2="19.33" y2="284.92"/><line class="cls-1" x1="148.85" y1="58.68" x2="182.15" y2="91.98"/></svg>